<svg width="546" height="300" viewBox="0 0 546 300" fill="none" xmlns="http://www.w3.org/2000/svg">
<rect x="47" y="1" width="458" height="298" rx="5" stroke="#C8C8C8" stroke-width="2"/>
<g clip-path="url(#clip0_45_58)">
<line x1="305.8" y1="83.7403" x2="222.484" y2="142.079" stroke="#EDEDED"/>
<line x1="316.8" y1="91.2403" x2="233.484" y2="149.579" stroke="#EDEDED"/>
<line x1="296.8" y1="76.6678" x2="213.484" y2="135.006" stroke="#EDEDED"/>
<line x1="286.8" y1="69.6678" x2="203.484" y2="128.006" stroke="#EDEDED"/>
<line x1="327.8" y1="98.2403" x2="244.484" y2="156.579" stroke="#EDEDED"/>
<line x1="336.8" y1="105.24" x2="253.484" y2="163.579" stroke="#EDEDED"/>
<line x1="274.603" y1="65.4096" x2="191.287" y2="123.748" stroke="#EDEDED"/>
</g>
<rect x="231.5" y="88.5" width="89" height="49" rx="5.5" stroke="#D5D5D5"/>
<g clip-path="url(#clip1_45_58)">
<line x1="305.8" y1="152.74" x2="222.484" y2="211.079" stroke="#EDEDED"/>
<line x1="316.8" y1="160.24" x2="233.484" y2="218.579" stroke="#EDEDED"/>
<line x1="296.8" y1="145.668" x2="213.484" y2="204.006" stroke="#EDEDED"/>
<line x1="286.8" y1="138.668" x2="203.484" y2="197.006" stroke="#EDEDED"/>
<line x1="327.8" y1="167.24" x2="244.484" y2="225.579" stroke="#EDEDED"/>
<line x1="336.8" y1="174.24" x2="253.484" y2="232.579" stroke="#EDEDED"/>
<line x1="274.603" y1="134.41" x2="191.287" y2="192.748" stroke="#EDEDED"/>
</g>
<rect x="231.5" y="157.5" width="89" height="49" rx="5.5" stroke="#D5D5D5"/>
<path d="M439.651 277.818L442.673 286.389H442.793L445.815 277.818H447.108L443.369 288H442.097L438.358 277.818H439.651ZM448.535 288V280.364H449.708V288H448.535ZM449.131 279.091C448.903 279.091 448.705 279.013 448.54 278.857C448.377 278.701 448.296 278.514 448.296 278.295C448.296 278.077 448.377 277.889 448.54 277.734C448.705 277.578 448.903 277.5 449.131 277.5C449.36 277.5 449.556 277.578 449.718 277.734C449.884 277.889 449.967 278.077 449.967 278.295C449.967 278.514 449.884 278.701 449.718 278.857C449.556 279.013 449.36 279.091 449.131 279.091ZM455.059 288.159C454.323 288.159 453.688 287.997 453.155 287.672C452.624 287.344 452.215 286.886 451.927 286.3C451.642 285.71 451.499 285.024 451.499 284.241C451.499 283.459 451.642 282.77 451.927 282.173C452.215 281.573 452.616 281.106 453.13 280.771C453.647 280.433 454.25 280.264 454.939 280.264C455.337 280.264 455.73 280.33 456.118 280.463C456.506 280.596 456.858 280.811 457.177 281.109C457.495 281.404 457.748 281.795 457.937 282.283C458.126 282.77 458.221 283.37 458.221 284.082V284.58H452.334V283.565H457.028C457.028 283.134 456.941 282.75 456.769 282.412C456.6 282.074 456.358 281.807 456.043 281.612C455.732 281.416 455.364 281.318 454.939 281.318C454.472 281.318 454.068 281.434 453.726 281.666C453.388 281.895 453.128 282.193 452.946 282.561C452.764 282.929 452.672 283.323 452.672 283.744V284.42C452.672 284.997 452.772 285.486 452.971 285.887C453.173 286.285 453.453 286.588 453.811 286.797C454.169 287.002 454.585 287.105 455.059 287.105C455.367 287.105 455.645 287.062 455.894 286.976C456.146 286.886 456.363 286.754 456.545 286.578C456.728 286.399 456.868 286.177 456.968 285.912L458.101 286.23C457.982 286.615 457.782 286.953 457.5 287.244C457.218 287.533 456.87 287.758 456.456 287.92C456.041 288.08 455.576 288.159 455.059 288.159ZM461.736 288L459.409 280.364H460.642L462.292 286.21H462.372L464.003 280.364H465.256L466.866 286.19H466.946L468.596 280.364H469.829L467.503 288H466.349L464.679 282.134H464.559L462.889 288H461.736ZM471.381 290.864V280.364H472.514V281.577H472.653C472.739 281.444 472.859 281.275 473.011 281.07C473.167 280.861 473.389 280.675 473.677 280.513C473.969 280.347 474.363 280.264 474.861 280.264C475.504 280.264 476.07 280.425 476.561 280.746C477.051 281.068 477.434 281.524 477.709 282.114C477.984 282.704 478.122 283.4 478.122 284.202C478.122 285.01 477.984 285.711 477.709 286.305C477.434 286.895 477.053 287.352 476.566 287.677C476.079 287.998 475.517 288.159 474.881 288.159C474.39 288.159 473.997 288.078 473.702 287.915C473.407 287.75 473.18 287.562 473.021 287.354C472.862 287.142 472.739 286.966 472.653 286.827H472.554V290.864H471.381ZM472.534 284.182C472.534 284.759 472.618 285.267 472.787 285.708C472.956 286.146 473.203 286.489 473.528 286.737C473.853 286.982 474.251 287.105 474.721 287.105C475.212 287.105 475.621 286.976 475.949 286.717C476.281 286.455 476.529 286.104 476.695 285.663C476.864 285.219 476.949 284.725 476.949 284.182C476.949 283.645 476.866 283.161 476.7 282.73C476.538 282.296 476.291 281.953 475.959 281.701C475.631 281.446 475.219 281.318 474.721 281.318C474.244 281.318 473.843 281.439 473.518 281.681C473.193 281.92 472.948 282.254 472.782 282.685C472.617 283.113 472.534 283.612 472.534 284.182ZM483.014 288.159C482.325 288.159 481.72 287.995 481.199 287.667C480.682 287.339 480.278 286.88 479.986 286.29C479.698 285.7 479.554 285.01 479.554 284.222C479.554 283.426 479.698 282.732 479.986 282.138C480.278 281.545 480.682 281.085 481.199 280.756C481.72 280.428 482.325 280.264 483.014 280.264C483.703 280.264 484.307 280.428 484.824 280.756C485.344 281.085 485.748 281.545 486.037 282.138C486.328 282.732 486.474 283.426 486.474 284.222C486.474 285.01 486.328 285.7 486.037 286.29C485.748 286.88 485.344 287.339 484.824 287.667C484.307 287.995 483.703 288.159 483.014 288.159ZM483.014 287.105C483.538 287.105 483.969 286.971 484.307 286.702C484.645 286.434 484.895 286.081 485.057 285.643C485.22 285.206 485.301 284.732 485.301 284.222C485.301 283.711 485.22 283.236 485.057 282.795C484.895 282.354 484.645 281.998 484.307 281.726C483.969 281.454 483.538 281.318 483.014 281.318C482.49 281.318 482.059 281.454 481.721 281.726C481.383 281.998 481.133 282.354 480.971 282.795C480.808 283.236 480.727 283.711 480.727 284.222C480.727 284.732 480.808 285.206 480.971 285.643C481.133 286.081 481.383 286.434 481.721 286.702C482.059 286.971 482.49 287.105 483.014 287.105ZM488.265 288V280.364H489.399V281.517H489.478C489.618 281.139 489.869 280.833 490.234 280.597C490.599 280.362 491.01 280.244 491.467 280.244C491.553 280.244 491.661 280.246 491.79 280.249C491.919 280.253 492.017 280.258 492.083 280.264V281.457C492.044 281.447 491.953 281.433 491.81 281.413C491.671 281.389 491.523 281.378 491.368 281.378C490.996 281.378 490.665 281.456 490.373 281.612C490.085 281.764 489.856 281.976 489.687 282.248C489.521 282.516 489.439 282.823 489.439 283.168V288H488.265ZM497.274 280.364V281.358H493.316V280.364H497.274ZM494.47 278.534H495.643V285.812C495.643 286.144 495.691 286.393 495.787 286.558C495.887 286.721 496.013 286.83 496.165 286.886C496.321 286.939 496.485 286.966 496.657 286.966C496.787 286.966 496.893 286.959 496.975 286.946C497.058 286.929 497.125 286.916 497.174 286.906L497.413 287.96C497.333 287.99 497.222 288.02 497.08 288.05C496.937 288.083 496.757 288.099 496.538 288.099C496.207 288.099 495.882 288.028 495.564 287.886C495.249 287.743 494.987 287.526 494.778 287.234C494.573 286.943 494.47 286.575 494.47 286.131V278.534Z" fill="#868686"/>
<line x1="5" y1="1" x2="546" y2="1" stroke="#D82121" stroke-width="2" stroke-dasharray="4 4"/>
<path d="M511.629 240.78L512.88 240.671C512.939 241.172 513.076 241.585 513.29 241.908C513.509 242.227 513.846 242.487 514.302 242.688C514.757 242.883 515.27 242.981 515.84 242.981C516.346 242.981 516.792 242.906 517.18 242.756C517.567 242.605 517.854 242.4 518.041 242.141C518.232 241.876 518.328 241.589 518.328 241.279C518.328 240.965 518.237 240.691 518.055 240.459C517.872 240.222 517.572 240.024 517.152 239.864C516.883 239.759 516.289 239.598 515.368 239.379C514.448 239.156 513.803 238.946 513.434 238.75C512.955 238.499 512.597 238.189 512.36 237.82C512.128 237.447 512.012 237.03 512.012 236.569C512.012 236.063 512.155 235.592 512.442 235.154C512.729 234.712 513.149 234.377 513.7 234.149C514.252 233.922 514.865 233.808 515.539 233.808C516.282 233.808 516.936 233.928 517.501 234.17C518.071 234.407 518.508 234.758 518.813 235.223C519.119 235.688 519.283 236.214 519.306 236.802L518.034 236.897C517.966 236.264 517.733 235.785 517.337 235.462C516.945 235.138 516.364 234.977 515.594 234.977C514.792 234.977 514.206 235.125 513.837 235.421C513.472 235.713 513.29 236.066 513.29 236.48C513.29 236.84 513.42 237.137 513.68 237.369C513.935 237.602 514.6 237.841 515.676 238.087C516.756 238.328 517.496 238.54 517.897 238.723C518.481 238.992 518.911 239.333 519.189 239.748C519.467 240.158 519.606 240.632 519.606 241.17C519.606 241.703 519.454 242.207 519.148 242.681C518.843 243.15 518.403 243.517 517.829 243.781C517.259 244.041 516.617 244.171 515.901 244.171C514.994 244.171 514.233 244.039 513.618 243.774C513.007 243.51 512.527 243.114 512.176 242.585C511.829 242.052 511.647 241.45 511.629 240.78ZM523.947 242.899L524.125 243.986C523.779 244.059 523.469 244.096 523.195 244.096C522.749 244.096 522.402 244.025 522.156 243.884C521.91 243.743 521.737 243.558 521.637 243.33C521.536 243.098 521.486 242.612 521.486 241.874V237.697H520.584V236.74H521.486V234.942L522.71 234.204V236.74H523.947V237.697H522.71V241.942C522.71 242.293 522.73 242.519 522.771 242.619C522.817 242.719 522.888 242.799 522.983 242.858C523.084 242.918 523.225 242.947 523.407 242.947C523.544 242.947 523.724 242.931 523.947 242.899ZM529.895 243.104C529.439 243.492 528.999 243.765 528.575 243.925C528.156 244.084 527.705 244.164 527.222 244.164C526.424 244.164 525.811 243.97 525.383 243.583C524.954 243.191 524.74 242.692 524.74 242.086C524.74 241.73 524.82 241.407 524.979 241.115C525.144 240.819 525.355 240.582 525.615 240.404C525.88 240.227 526.176 240.092 526.504 240.001C526.745 239.937 527.11 239.876 527.598 239.816C528.591 239.698 529.323 239.557 529.792 239.393C529.797 239.224 529.799 239.117 529.799 239.071C529.799 238.57 529.683 238.217 529.45 238.012C529.136 237.734 528.669 237.595 528.049 237.595C527.47 237.595 527.042 237.697 526.764 237.902C526.49 238.103 526.287 238.461 526.155 238.976L524.952 238.812C525.062 238.297 525.242 237.882 525.492 237.567C525.743 237.248 526.105 237.005 526.579 236.836C527.053 236.663 527.602 236.576 528.227 236.576C528.846 236.576 529.35 236.649 529.737 236.795C530.125 236.941 530.41 237.125 530.592 237.349C530.774 237.567 530.902 237.845 530.975 238.183C531.016 238.392 531.036 238.771 531.036 239.317V240.958C531.036 242.102 531.061 242.826 531.111 243.132C531.166 243.433 531.271 243.722 531.426 244H530.141C530.013 243.745 529.931 243.446 529.895 243.104ZM529.792 240.356C529.345 240.539 528.675 240.694 527.782 240.821C527.276 240.894 526.919 240.976 526.709 241.067C526.499 241.159 526.338 241.293 526.224 241.471C526.11 241.644 526.053 241.838 526.053 242.052C526.053 242.38 526.176 242.653 526.422 242.872C526.673 243.091 527.037 243.2 527.516 243.2C527.99 243.2 528.411 243.098 528.78 242.893C529.149 242.683 529.421 242.398 529.594 242.038C529.726 241.76 529.792 241.35 529.792 240.808V240.356ZM532.937 244V236.74H534.044V237.841C534.326 237.326 534.586 236.986 534.823 236.822C535.065 236.658 535.329 236.576 535.616 236.576C536.031 236.576 536.452 236.708 536.881 236.973L536.457 238.114C536.156 237.937 535.855 237.848 535.555 237.848C535.286 237.848 535.044 237.93 534.83 238.094C534.616 238.253 534.463 238.477 534.372 238.764C534.235 239.201 534.167 239.68 534.167 240.199V244H532.937ZM540.299 242.899L540.477 243.986C540.13 244.059 539.82 244.096 539.547 244.096C539.1 244.096 538.754 244.025 538.508 243.884C538.262 243.743 538.089 243.558 537.988 243.33C537.888 243.098 537.838 242.612 537.838 241.874V237.697H536.936V236.74H537.838V234.942L539.062 234.204V236.74H540.299V237.697H539.062V241.942C539.062 242.293 539.082 242.519 539.123 242.619C539.169 242.719 539.239 242.799 539.335 242.858C539.435 242.918 539.576 242.947 539.759 242.947C539.896 242.947 540.076 242.931 540.299 242.899Z" fill="#27AE60"/>
<path d="M522.107 21V10.9785H529.354V12.1611H523.434V15.2305H528.978V16.4062H523.434V19.8174H529.586V21H522.107ZM531.261 21V13.7402H532.368V14.7725C532.901 13.9749 533.672 13.5762 534.679 13.5762C535.116 13.5762 535.517 13.6559 535.882 13.8154C536.251 13.9704 536.527 14.1755 536.709 14.4307C536.891 14.6859 537.019 14.9889 537.092 15.3398C537.137 15.5677 537.16 15.9665 537.16 16.5361V21H535.93V16.584C535.93 16.0827 535.882 15.709 535.786 15.4629C535.69 15.2122 535.52 15.014 535.273 14.8682C535.032 14.7178 534.747 14.6426 534.419 14.6426C533.895 14.6426 533.441 14.8089 533.059 15.1416C532.68 15.4743 532.491 16.1055 532.491 17.0352V21H531.261ZM543.764 21V20.084C543.303 20.804 542.627 21.1641 541.733 21.1641C541.155 21.1641 540.621 21.0046 540.134 20.6855C539.651 20.3665 539.275 19.9222 539.006 19.3525C538.742 18.7783 538.609 18.1198 538.609 17.377C538.609 16.6523 538.73 15.9961 538.972 15.4082C539.213 14.8158 539.576 14.3623 540.059 14.0479C540.542 13.7334 541.082 13.5762 541.679 13.5762C542.116 13.5762 542.506 13.6696 542.848 13.8564C543.189 14.0387 543.467 14.278 543.682 14.5742V10.9785H544.905V21H543.764ZM539.874 17.377C539.874 18.3066 540.07 19.0016 540.462 19.4619C540.854 19.9222 541.316 20.1523 541.85 20.1523C542.387 20.1523 542.843 19.9336 543.217 19.4961C543.595 19.054 543.784 18.3818 543.784 17.4795C543.784 16.486 543.593 15.7568 543.21 15.292C542.827 14.8271 542.355 14.5947 541.795 14.5947C541.248 14.5947 540.79 14.818 540.421 15.2646C540.056 15.7113 539.874 16.4154 539.874 17.377Z" fill="#D82121"/>
<rect x="234.5" y="250.5" width="89" height="49" rx="5.5" fill="#F8DDB3"/>
<rect x="234.5" y="250.5" width="89" height="49" rx="5.5" stroke="#A5A5A5"/>
<path d="M248.924 278.4C249.276 278.4 249.576 278.344 249.824 278.232C250.08 278.12 250.296 277.972 250.472 277.788C250.656 277.604 250.816 277.404 250.952 277.188L251.528 277.644C251.376 277.94 251.172 278.204 250.916 278.436C250.66 278.66 250.364 278.836 250.028 278.964C249.692 279.084 249.32 279.144 248.912 279.144C248.216 279.144 247.62 279.008 247.124 278.736C246.628 278.456 246.248 278.06 245.984 277.548C245.72 277.036 245.588 276.428 245.588 275.724C245.588 275.02 245.72 274.416 245.984 273.912C246.256 273.4 246.644 273.008 247.148 272.736C247.652 272.464 248.252 272.328 248.948 272.328C249.372 272.328 249.744 272.36 250.064 272.424C250.392 272.488 250.66 272.56 250.868 272.64C251.084 272.72 251.236 272.796 251.324 272.868V274.788H250.244V273.192C250.324 273.192 250.396 273.208 250.46 273.24C250.532 273.264 250.592 273.3 250.64 273.348C250.696 273.388 250.736 273.432 250.76 273.48C250.784 273.528 250.796 273.572 250.796 273.612C250.612 273.46 250.36 273.332 250.04 273.228C249.72 273.124 249.36 273.072 248.96 273.072C248.44 273.072 248.012 273.176 247.676 273.384C247.348 273.584 247.104 273.884 246.944 274.284C246.792 274.676 246.716 275.156 246.716 275.724C246.716 276.172 246.756 276.564 246.836 276.9C246.924 277.236 247.056 277.516 247.232 277.74C247.416 277.964 247.648 278.132 247.928 278.244C248.208 278.348 248.54 278.4 248.924 278.4ZM259.1 275.736C259.1 276.44 258.964 277.048 258.692 277.56C258.428 278.072 258.052 278.464 257.564 278.736C257.076 279.008 256.5 279.144 255.836 279.144C255.172 279.144 254.596 279.008 254.108 278.736C253.62 278.464 253.24 278.072 252.968 277.56C252.704 277.048 252.572 276.44 252.572 275.736C252.572 275.208 252.648 274.736 252.8 274.32C252.952 273.896 253.168 273.536 253.448 273.24C253.736 272.944 254.08 272.72 254.48 272.568C254.888 272.408 255.34 272.328 255.836 272.328C256.332 272.328 256.78 272.408 257.18 272.568C257.58 272.72 257.924 272.944 258.212 273.24C258.5 273.536 258.72 273.896 258.872 274.32C259.024 274.736 259.1 275.208 259.1 275.736ZM253.7 275.736C253.7 276.336 253.776 276.836 253.928 277.236C254.088 277.628 254.324 277.92 254.636 278.112C254.956 278.304 255.356 278.4 255.836 278.4C256.324 278.4 256.724 278.308 257.036 278.124C257.348 277.932 257.58 277.636 257.732 277.236C257.892 276.836 257.972 276.336 257.972 275.736C257.972 275.16 257.892 274.676 257.732 274.284C257.58 273.884 257.348 273.584 257.036 273.384C256.724 273.176 256.324 273.072 255.836 273.072C255.356 273.072 254.956 273.176 254.636 273.384C254.324 273.584 254.088 273.884 253.928 274.284C253.776 274.676 253.7 275.16 253.7 275.736ZM260.2 279V278.424H260.236C260.452 278.424 260.636 278.404 260.788 278.364C260.94 278.316 261.056 278.24 261.136 278.136C261.216 278.024 261.256 277.868 261.256 277.668V273.66C261.256 273.54 261.22 273.452 261.148 273.396C261.084 273.332 260.98 273.28 260.836 273.24C260.7 273.2 260.528 273.16 260.32 273.12L260.2 273.096V272.448H262.096L262.288 273.84L262.324 273.888V278.304C262.324 278.328 262.372 278.352 262.468 278.376C262.564 278.392 262.68 278.404 262.816 278.412C262.952 278.42 263.076 278.424 263.188 278.424H263.248V279H260.2ZM267.568 279H264.52V278.424H264.568C264.68 278.424 264.804 278.42 264.94 278.412C265.076 278.404 265.192 278.392 265.288 278.376C265.384 278.352 265.432 278.328 265.432 278.304V274.224C265.432 273.976 265.396 273.772 265.324 273.612C265.26 273.452 265.152 273.332 265 273.252C264.848 273.172 264.64 273.132 264.376 273.132C264.12 273.132 263.864 273.184 263.608 273.288C263.352 273.384 263.1 273.54 262.852 273.756C262.604 273.964 262.352 274.236 262.096 274.572V273.984C262.336 273.624 262.588 273.32 262.852 273.072C263.124 272.824 263.412 272.636 263.716 272.508C264.02 272.38 264.348 272.316 264.7 272.316C265.084 272.316 265.408 272.384 265.672 272.52C265.944 272.656 266.148 272.856 266.284 273.12C266.428 273.376 266.5 273.7 266.5 274.092V277.668C266.5 277.868 266.54 278.024 266.62 278.136C266.7 278.24 266.816 278.316 266.968 278.364C267.128 278.404 267.312 278.424 267.52 278.424H267.568V279ZM268.079 273.168V272.508H268.235C268.515 272.508 268.747 272.492 268.931 272.46C269.123 272.42 269.267 272.34 269.363 272.22C269.459 272.092 269.507 271.908 269.507 271.668L270.287 272.448H272.663V273.168H268.079ZM270.491 277.092C270.491 277.42 270.539 277.676 270.635 277.86C270.731 278.044 270.871 278.176 271.055 278.256C271.247 278.328 271.479 278.364 271.751 278.364C271.967 278.364 272.167 278.352 272.351 278.328C272.535 278.296 272.655 278.272 272.711 278.256V278.988C272.623 279.012 272.515 279.036 272.387 279.06C272.267 279.084 272.139 279.1 272.003 279.108C271.867 279.124 271.735 279.132 271.607 279.132C271.223 279.132 270.863 279.08 270.527 278.976C270.191 278.872 269.923 278.672 269.723 278.376C269.523 278.08 269.423 277.656 269.423 277.104V272.616L269.507 272.52V270.564H270.491V277.092ZM278.046 275.004V275.652C277.534 275.724 277.094 275.804 276.726 275.892C276.358 275.98 276.054 276.072 275.814 276.168C275.582 276.264 275.402 276.376 275.274 276.504C275.146 276.624 275.054 276.76 274.998 276.912C274.942 277.056 274.914 277.216 274.914 277.392C274.914 277.632 274.962 277.828 275.058 277.98C275.154 278.132 275.286 278.244 275.454 278.316C275.622 278.388 275.822 278.424 276.054 278.424C276.302 278.424 276.534 278.368 276.75 278.256C276.966 278.144 277.178 277.968 277.386 277.728C277.594 277.488 277.806 277.184 278.022 276.816L278.046 277.488C277.87 277.824 277.67 278.116 277.446 278.364C277.23 278.612 276.99 278.804 276.726 278.94C276.462 279.068 276.162 279.132 275.826 279.132C275.418 279.132 275.062 279.068 274.758 278.94C274.462 278.812 274.23 278.62 274.062 278.364C273.902 278.1 273.822 277.78 273.822 277.404C273.822 277.068 273.894 276.776 274.038 276.528C274.19 276.28 274.43 276.064 274.758 275.88C275.086 275.688 275.518 275.52 276.054 275.376C276.598 275.232 277.262 275.108 278.046 275.004ZM278.082 279L277.89 277.584L277.854 277.5V274.272C277.854 273.976 277.814 273.74 277.734 273.564C277.654 273.388 277.518 273.26 277.326 273.18C277.134 273.1 276.87 273.06 276.534 273.06C276.03 273.06 275.614 273.124 275.286 273.252C274.966 273.372 274.73 273.5 274.578 273.636C274.578 273.58 274.594 273.52 274.626 273.456C274.666 273.392 274.714 273.332 274.77 273.276C274.834 273.22 274.906 273.172 274.986 273.132C275.066 273.092 275.158 273.068 275.262 273.06V274.5H274.194V272.964C274.306 272.876 274.47 272.784 274.686 272.688C274.902 272.592 275.166 272.508 275.478 272.436C275.798 272.364 276.162 272.328 276.57 272.328C276.906 272.328 277.218 272.36 277.506 272.424C277.794 272.488 278.042 272.592 278.25 272.736C278.458 272.872 278.622 273.056 278.742 273.288C278.862 273.512 278.922 273.788 278.922 274.116V277.836C278.922 277.948 278.958 278.036 279.03 278.1C279.11 278.164 279.222 278.212 279.366 278.244C279.51 278.276 279.686 278.308 279.894 278.34L279.978 278.352V279H278.082ZM282.243 271.128C282.003 271.128 281.807 271.064 281.655 270.936C281.511 270.808 281.439 270.612 281.439 270.348C281.439 270.092 281.511 269.9 281.655 269.772C281.807 269.644 282.003 269.58 282.243 269.58C282.467 269.58 282.655 269.644 282.807 269.772C282.959 269.9 283.035 270.092 283.035 270.348C283.035 270.612 282.959 270.808 282.807 270.936C282.655 271.064 282.467 271.128 282.243 271.128ZM282.867 272.448V277.752C282.867 278.016 282.959 278.196 283.143 278.292C283.327 278.38 283.579 278.424 283.899 278.424H283.935V279H280.743V278.424H280.791C281.111 278.424 281.359 278.38 281.535 278.292C281.719 278.196 281.811 278.016 281.811 277.752V273.66C281.811 273.484 281.731 273.368 281.571 273.312C281.419 273.248 281.183 273.184 280.863 273.12L280.743 273.096V272.448H282.867ZM284.821 279V278.424H284.857C285.073 278.424 285.257 278.404 285.409 278.364C285.561 278.316 285.677 278.24 285.757 278.136C285.837 278.024 285.877 277.868 285.877 277.668V273.66C285.877 273.54 285.841 273.452 285.769 273.396C285.705 273.332 285.601 273.28 285.457 273.24C285.321 273.2 285.149 273.16 284.941 273.12L284.821 273.096V272.448H286.717L286.909 273.84L286.945 273.888V278.304C286.945 278.328 286.993 278.352 287.089 278.376C287.185 278.392 287.301 278.404 287.437 278.412C287.573 278.42 287.697 278.424 287.809 278.424H287.869V279H284.821ZM292.189 279H289.141V278.424H289.189C289.301 278.424 289.425 278.42 289.561 278.412C289.697 278.404 289.813 278.392 289.909 278.376C290.005 278.352 290.053 278.328 290.053 278.304V274.224C290.053 273.976 290.017 273.772 289.945 273.612C289.881 273.452 289.773 273.332 289.621 273.252C289.469 273.172 289.261 273.132 288.997 273.132C288.741 273.132 288.485 273.184 288.229 273.288C287.973 273.384 287.721 273.54 287.473 273.756C287.225 273.964 286.973 274.236 286.717 274.572V273.984C286.957 273.624 287.209 273.32 287.473 273.072C287.745 272.824 288.033 272.636 288.337 272.508C288.641 272.38 288.969 272.316 289.321 272.316C289.705 272.316 290.029 272.384 290.293 272.52C290.565 272.656 290.769 272.856 290.905 273.12C291.049 273.376 291.121 273.7 291.121 274.092V277.668C291.121 277.868 291.161 278.024 291.241 278.136C291.321 278.24 291.437 278.316 291.589 278.364C291.749 278.404 291.933 278.424 292.141 278.424H292.189V279ZM299.008 279.132C298.576 279.132 298.184 279.044 297.832 278.868C297.488 278.692 297.192 278.436 296.944 278.1C296.696 277.756 296.504 277.332 296.368 276.828C296.24 276.324 296.176 275.748 296.176 275.1C296.176 274.444 296.24 273.864 296.368 273.36C296.504 272.856 296.696 272.432 296.944 272.088C297.192 271.744 297.488 271.488 297.832 271.32C298.184 271.144 298.576 271.056 299.008 271.056C299.44 271.056 299.828 271.144 300.172 271.32C300.524 271.488 300.824 271.744 301.072 272.088C301.32 272.432 301.508 272.856 301.636 273.36C301.772 273.864 301.84 274.444 301.84 275.1C301.84 275.748 301.772 276.324 301.636 276.828C301.508 277.332 301.32 277.756 301.072 278.1C300.824 278.436 300.524 278.692 300.172 278.868C299.828 279.044 299.44 279.132 299.008 279.132ZM299.008 278.436C299.312 278.436 299.568 278.368 299.776 278.232C299.984 278.096 300.156 277.888 300.292 277.608C300.428 277.328 300.528 276.98 300.592 276.564C300.656 276.148 300.688 275.66 300.688 275.1C300.688 274.532 300.656 274.04 300.592 273.624C300.528 273.208 300.428 272.86 300.292 272.58C300.156 272.3 299.984 272.092 299.776 271.956C299.568 271.82 299.312 271.752 299.008 271.752C298.704 271.752 298.448 271.82 298.24 271.956C298.032 272.092 297.86 272.3 297.724 272.58C297.588 272.86 297.488 273.208 297.424 273.624C297.36 274.04 297.328 274.532 297.328 275.1C297.328 275.66 297.36 276.152 297.424 276.576C297.488 276.992 297.588 277.34 297.724 277.62C297.86 277.892 298.032 278.096 298.24 278.232C298.448 278.368 298.704 278.436 299.008 278.436ZM304.751 274.572C304.383 274.572 304.059 274.484 303.779 274.308C303.507 274.132 303.291 273.88 303.131 273.552C302.979 273.224 302.903 272.824 302.903 272.352C302.903 271.872 302.979 271.468 303.131 271.14C303.291 270.804 303.507 270.552 303.779 270.384C304.059 270.208 304.383 270.12 304.751 270.12C305.119 270.12 305.443 270.208 305.723 270.384C306.003 270.552 306.219 270.804 306.371 271.14C306.531 271.468 306.611 271.872 306.611 272.352C306.611 272.824 306.531 273.224 306.371 273.552C306.219 273.88 306.003 274.132 305.723 274.308C305.443 274.484 305.119 274.572 304.751 274.572ZM304.751 273.984C304.959 273.984 305.127 273.928 305.255 273.816C305.383 273.696 305.475 273.516 305.531 273.276C305.595 273.036 305.627 272.728 305.627 272.352C305.627 271.968 305.595 271.656 305.531 271.416C305.475 271.176 305.383 271 305.255 270.888C305.127 270.768 304.959 270.708 304.751 270.708C304.551 270.708 304.387 270.768 304.259 270.888C304.131 271 304.035 271.176 303.971 271.416C303.915 271.656 303.887 271.968 303.887 272.352C303.887 272.728 303.915 273.036 303.971 273.276C304.035 273.516 304.131 273.696 304.259 273.816C304.387 273.928 304.551 273.984 304.751 273.984ZM309.311 279.168C308.943 279.168 308.619 279.084 308.339 278.916C308.059 278.74 307.843 278.488 307.691 278.16C307.539 277.824 307.463 277.42 307.463 276.948C307.463 276.468 307.539 276.064 307.691 275.736C307.843 275.408 308.059 275.156 308.339 274.98C308.619 274.804 308.943 274.716 309.311 274.716C309.679 274.716 310.003 274.804 310.283 274.98C310.563 275.156 310.779 275.408 310.931 275.736C311.091 276.064 311.171 276.468 311.171 276.948C311.171 277.42 311.091 277.824 310.931 278.16C310.779 278.488 310.563 278.74 310.283 278.916C310.003 279.084 309.679 279.168 309.311 279.168ZM303.071 279L310.067 270.48H310.931L303.923 279H303.071ZM309.311 278.58C309.519 278.58 309.687 278.524 309.815 278.412C309.943 278.3 310.035 278.124 310.091 277.884C310.147 277.636 310.175 277.324 310.175 276.948C310.175 276.572 310.147 276.264 310.091 276.024C310.035 275.776 309.943 275.596 309.815 275.484C309.687 275.364 309.519 275.304 309.311 275.304C309.103 275.304 308.935 275.364 308.807 275.484C308.679 275.596 308.587 275.776 308.531 276.024C308.475 276.264 308.447 276.572 308.447 276.948C308.447 277.324 308.475 277.636 308.531 277.884C308.587 278.124 308.679 278.3 308.807 278.412C308.935 278.524 309.103 278.58 309.311 278.58Z" fill="black"/>
<line y1="251" x2="541" y2="251" stroke="#27AE60" stroke-width="2" stroke-dasharray="4 4"/>
<g clip-path="url(#clip2_45_58)">
<line x1="305.8" y1="-3.25974" x2="222.484" y2="55.0789" stroke="#DCDCDC"/>
<line x1="316.8" y1="4.24026" x2="233.484" y2="62.5789" stroke="#DCDCDC"/>
<line x1="296.8" y1="-10.3322" x2="213.484" y2="48.0065" stroke="#DCDCDC"/>
<line x1="286.8" y1="-17.3322" x2="203.484" y2="41.0065" stroke="#DCDCDC"/>
<line x1="327.8" y1="11.2403" x2="244.484" y2="69.5789" stroke="#DCDCDC"/>
<line x1="336.8" y1="18.2403" x2="253.484" y2="76.5789" stroke="#DCDCDC"/>
<line x1="274.603" y1="-21.5904" x2="191.287" y2="36.7482" stroke="#DCDCDC"/>
<path d="M237.924 29.4C238.276 29.4 238.576 29.344 238.824 29.232C239.08 29.12 239.296 28.972 239.472 28.788C239.656 28.604 239.816 28.404 239.952 28.188L240.528 28.644C240.376 28.94 240.172 29.204 239.916 29.436C239.66 29.66 239.364 29.836 239.028 29.964C238.692 30.084 238.32 30.144 237.912 30.144C237.216 30.144 236.62 30.008 236.124 29.736C235.628 29.456 235.248 29.06 234.984 28.548C234.72 28.036 234.588 27.428 234.588 26.724C234.588 26.02 234.72 25.416 234.984 24.912C235.256 24.4 235.644 24.008 236.148 23.736C236.652 23.464 237.252 23.328 237.948 23.328C238.372 23.328 238.744 23.36 239.064 23.424C239.392 23.488 239.66 23.56 239.868 23.64C240.084 23.72 240.236 23.796 240.324 23.868V25.788H239.244V24.192C239.324 24.192 239.396 24.208 239.46 24.24C239.532 24.264 239.592 24.3 239.64 24.348C239.696 24.388 239.736 24.432 239.76 24.48C239.784 24.528 239.796 24.572 239.796 24.612C239.612 24.46 239.36 24.332 239.04 24.228C238.72 24.124 238.36 24.072 237.96 24.072C237.44 24.072 237.012 24.176 236.676 24.384C236.348 24.584 236.104 24.884 235.944 25.284C235.792 25.676 235.716 26.156 235.716 26.724C235.716 27.172 235.756 27.564 235.836 27.9C235.924 28.236 236.056 28.516 236.232 28.74C236.416 28.964 236.648 29.132 236.928 29.244C237.208 29.348 237.54 29.4 237.924 29.4ZM248.1 26.736C248.1 27.44 247.964 28.048 247.692 28.56C247.428 29.072 247.052 29.464 246.564 29.736C246.076 30.008 245.5 30.144 244.836 30.144C244.172 30.144 243.596 30.008 243.108 29.736C242.62 29.464 242.24 29.072 241.968 28.56C241.704 28.048 241.572 27.44 241.572 26.736C241.572 26.208 241.648 25.736 241.8 25.32C241.952 24.896 242.168 24.536 242.448 24.24C242.736 23.944 243.08 23.72 243.48 23.568C243.888 23.408 244.34 23.328 244.836 23.328C245.332 23.328 245.78 23.408 246.18 23.568C246.58 23.72 246.924 23.944 247.212 24.24C247.5 24.536 247.72 24.896 247.872 25.32C248.024 25.736 248.1 26.208 248.1 26.736ZM242.7 26.736C242.7 27.336 242.776 27.836 242.928 28.236C243.088 28.628 243.324 28.92 243.636 29.112C243.956 29.304 244.356 29.4 244.836 29.4C245.324 29.4 245.724 29.308 246.036 29.124C246.348 28.932 246.58 28.636 246.732 28.236C246.892 27.836 246.972 27.336 246.972 26.736C246.972 26.16 246.892 25.676 246.732 25.284C246.58 24.884 246.348 24.584 246.036 24.384C245.724 24.176 245.324 24.072 244.836 24.072C244.356 24.072 243.956 24.176 243.636 24.384C243.324 24.584 243.088 24.884 242.928 25.284C242.776 25.676 242.7 26.16 242.7 26.736ZM249.2 30V29.424H249.236C249.452 29.424 249.636 29.404 249.788 29.364C249.94 29.316 250.056 29.24 250.136 29.136C250.216 29.024 250.256 28.868 250.256 28.668V24.66C250.256 24.54 250.22 24.452 250.148 24.396C250.084 24.332 249.98 24.28 249.836 24.24C249.7 24.2 249.528 24.16 249.32 24.12L249.2 24.096V23.448H251.096L251.288 24.84L251.324 24.888V29.304C251.324 29.328 251.372 29.352 251.468 29.376C251.564 29.392 251.68 29.404 251.816 29.412C251.952 29.42 252.076 29.424 252.188 29.424H252.248V30H249.2ZM256.568 30H253.52V29.424H253.568C253.68 29.424 253.804 29.42 253.94 29.412C254.076 29.404 254.192 29.392 254.288 29.376C254.384 29.352 254.432 29.328 254.432 29.304V25.224C254.432 24.976 254.396 24.772 254.324 24.612C254.26 24.452 254.152 24.332 254 24.252C253.848 24.172 253.64 24.132 253.376 24.132C253.12 24.132 252.864 24.184 252.608 24.288C252.352 24.384 252.1 24.54 251.852 24.756C251.604 24.964 251.352 25.236 251.096 25.572V24.984C251.336 24.624 251.588 24.32 251.852 24.072C252.124 23.824 252.412 23.636 252.716 23.508C253.02 23.38 253.348 23.316 253.7 23.316C254.084 23.316 254.408 23.384 254.672 23.52C254.944 23.656 255.148 23.856 255.284 24.12C255.428 24.376 255.5 24.7 255.5 25.092V28.668C255.5 28.868 255.54 29.024 255.62 29.136C255.7 29.24 255.816 29.316 255.968 29.364C256.128 29.404 256.312 29.424 256.52 29.424H256.568V30ZM257.079 24.168V23.508H257.235C257.515 23.508 257.747 23.492 257.931 23.46C258.123 23.42 258.267 23.34 258.363 23.22C258.459 23.092 258.507 22.908 258.507 22.668L259.287 23.448H261.663V24.168H257.079ZM259.491 28.092C259.491 28.42 259.539 28.676 259.635 28.86C259.731 29.044 259.871 29.176 260.055 29.256C260.247 29.328 260.479 29.364 260.751 29.364C260.967 29.364 261.167 29.352 261.351 29.328C261.535 29.296 261.655 29.272 261.711 29.256V29.988C261.623 30.012 261.515 30.036 261.387 30.06C261.267 30.084 261.139 30.1 261.003 30.108C260.867 30.124 260.735 30.132 260.607 30.132C260.223 30.132 259.863 30.08 259.527 29.976C259.191 29.872 258.923 29.672 258.723 29.376C258.523 29.08 258.423 28.656 258.423 28.104V23.616L258.507 23.52V21.564H259.491V28.092ZM267.046 26.004V26.652C266.534 26.724 266.094 26.804 265.726 26.892C265.358 26.98 265.054 27.072 264.814 27.168C264.582 27.264 264.402 27.376 264.274 27.504C264.146 27.624 264.054 27.76 263.998 27.912C263.942 28.056 263.914 28.216 263.914 28.392C263.914 28.632 263.962 28.828 264.058 28.98C264.154 29.132 264.286 29.244 264.454 29.316C264.622 29.388 264.822 29.424 265.054 29.424C265.302 29.424 265.534 29.368 265.75 29.256C265.966 29.144 266.178 28.968 266.386 28.728C266.594 28.488 266.806 28.184 267.022 27.816L267.046 28.488C266.87 28.824 266.67 29.116 266.446 29.364C266.23 29.612 265.99 29.804 265.726 29.94C265.462 30.068 265.162 30.132 264.826 30.132C264.418 30.132 264.062 30.068 263.758 29.94C263.462 29.812 263.23 29.62 263.062 29.364C262.902 29.1 262.822 28.78 262.822 28.404C262.822 28.068 262.894 27.776 263.038 27.528C263.19 27.28 263.43 27.064 263.758 26.88C264.086 26.688 264.518 26.52 265.054 26.376C265.598 26.232 266.262 26.108 267.046 26.004ZM267.082 30L266.89 28.584L266.854 28.5V25.272C266.854 24.976 266.814 24.74 266.734 24.564C266.654 24.388 266.518 24.26 266.326 24.18C266.134 24.1 265.87 24.06 265.534 24.06C265.03 24.06 264.614 24.124 264.286 24.252C263.966 24.372 263.73 24.5 263.578 24.636C263.578 24.58 263.594 24.52 263.626 24.456C263.666 24.392 263.714 24.332 263.77 24.276C263.834 24.22 263.906 24.172 263.986 24.132C264.066 24.092 264.158 24.068 264.262 24.06V25.5H263.194V23.964C263.306 23.876 263.47 23.784 263.686 23.688C263.902 23.592 264.166 23.508 264.478 23.436C264.798 23.364 265.162 23.328 265.57 23.328C265.906 23.328 266.218 23.36 266.506 23.424C266.794 23.488 267.042 23.592 267.25 23.736C267.458 23.872 267.622 24.056 267.742 24.288C267.862 24.512 267.922 24.788 267.922 25.116V28.836C267.922 28.948 267.958 29.036 268.03 29.1C268.11 29.164 268.222 29.212 268.366 29.244C268.51 29.276 268.686 29.308 268.894 29.34L268.978 29.352V30H267.082ZM271.243 22.128C271.003 22.128 270.807 22.064 270.655 21.936C270.511 21.808 270.439 21.612 270.439 21.348C270.439 21.092 270.511 20.9 270.655 20.772C270.807 20.644 271.003 20.58 271.243 20.58C271.467 20.58 271.655 20.644 271.807 20.772C271.959 20.9 272.035 21.092 272.035 21.348C272.035 21.612 271.959 21.808 271.807 21.936C271.655 22.064 271.467 22.128 271.243 22.128ZM271.867 23.448V28.752C271.867 29.016 271.959 29.196 272.143 29.292C272.327 29.38 272.579 29.424 272.899 29.424H272.935V30H269.743V29.424H269.791C270.111 29.424 270.359 29.38 270.535 29.292C270.719 29.196 270.811 29.016 270.811 28.752V24.66C270.811 24.484 270.731 24.368 270.571 24.312C270.419 24.248 270.183 24.184 269.863 24.12L269.743 24.096V23.448H271.867ZM273.821 30V29.424H273.857C274.073 29.424 274.257 29.404 274.409 29.364C274.561 29.316 274.677 29.24 274.757 29.136C274.837 29.024 274.877 28.868 274.877 28.668V24.66C274.877 24.54 274.841 24.452 274.769 24.396C274.705 24.332 274.601 24.28 274.457 24.24C274.321 24.2 274.149 24.16 273.941 24.12L273.821 24.096V23.448H275.717L275.909 24.84L275.945 24.888V29.304C275.945 29.328 275.993 29.352 276.089 29.376C276.185 29.392 276.301 29.404 276.437 29.412C276.573 29.42 276.697 29.424 276.809 29.424H276.869V30H273.821ZM281.189 30H278.141V29.424H278.189C278.301 29.424 278.425 29.42 278.561 29.412C278.697 29.404 278.813 29.392 278.909 29.376C279.005 29.352 279.053 29.328 279.053 29.304V25.224C279.053 24.976 279.017 24.772 278.945 24.612C278.881 24.452 278.773 24.332 278.621 24.252C278.469 24.172 278.261 24.132 277.997 24.132C277.741 24.132 277.485 24.184 277.229 24.288C276.973 24.384 276.721 24.54 276.473 24.756C276.225 24.964 275.973 25.236 275.717 25.572V24.984C275.957 24.624 276.209 24.32 276.473 24.072C276.745 23.824 277.033 23.636 277.337 23.508C277.641 23.38 277.969 23.316 278.321 23.316C278.705 23.316 279.029 23.384 279.293 23.52C279.565 23.656 279.769 23.856 279.905 24.12C280.049 24.376 280.121 24.7 280.121 25.092V28.668C280.121 28.868 280.161 29.024 280.241 29.136C280.321 29.24 280.437 29.316 280.589 29.364C280.749 29.404 280.933 29.424 281.141 29.424H281.189V30ZM288.86 28.92C288.86 29.032 288.916 29.12 289.028 29.184C289.14 29.248 289.3 29.292 289.508 29.316C289.716 29.34 289.96 29.352 290.24 29.352H290.72V30H285.836V29.352H286.508C286.764 29.352 286.984 29.34 287.168 29.316C287.36 29.292 287.508 29.248 287.612 29.184C287.716 29.12 287.768 29.032 287.768 28.92V23.064L287.948 22.92C287.892 23.112 287.792 23.28 287.648 23.424C287.512 23.568 287.336 23.692 287.12 23.796C286.912 23.892 286.676 23.964 286.412 24.012C286.156 24.06 285.888 24.084 285.608 24.084V23.28C285.912 23.272 286.196 23.248 286.46 23.208C286.724 23.168 286.96 23.108 287.168 23.028C287.376 22.948 287.56 22.844 287.72 22.716C287.88 22.58 288.016 22.416 288.128 22.224H288.86V28.92ZM294.723 30.132C294.291 30.132 293.899 30.044 293.547 29.868C293.203 29.692 292.907 29.436 292.659 29.1C292.411 28.756 292.219 28.332 292.083 27.828C291.955 27.324 291.891 26.748 291.891 26.1C291.891 25.444 291.955 24.864 292.083 24.36C292.219 23.856 292.411 23.432 292.659 23.088C292.907 22.744 293.203 22.488 293.547 22.32C293.899 22.144 294.291 22.056 294.723 22.056C295.155 22.056 295.543 22.144 295.887 22.32C296.239 22.488 296.539 22.744 296.787 23.088C297.035 23.432 297.223 23.856 297.351 24.36C297.487 24.864 297.555 25.444 297.555 26.1C297.555 26.748 297.487 27.324 297.351 27.828C297.223 28.332 297.035 28.756 296.787 29.1C296.539 29.436 296.239 29.692 295.887 29.868C295.543 30.044 295.155 30.132 294.723 30.132ZM294.723 29.436C295.027 29.436 295.283 29.368 295.491 29.232C295.699 29.096 295.871 28.888 296.007 28.608C296.143 28.328 296.243 27.98 296.307 27.564C296.371 27.148 296.403 26.66 296.403 26.1C296.403 25.532 296.371 25.04 296.307 24.624C296.243 24.208 296.143 23.86 296.007 23.58C295.871 23.3 295.699 23.092 295.491 22.956C295.283 22.82 295.027 22.752 294.723 22.752C294.419 22.752 294.163 22.82 293.955 22.956C293.747 23.092 293.575 23.3 293.439 23.58C293.303 23.86 293.203 24.208 293.139 24.624C293.075 25.04 293.043 25.532 293.043 26.1C293.043 26.66 293.075 27.152 293.139 27.576C293.203 27.992 293.303 28.34 293.439 28.62C293.575 28.892 293.747 29.096 293.955 29.232C294.163 29.368 294.419 29.436 294.723 29.436ZM301.438 30.132C301.006 30.132 300.614 30.044 300.262 29.868C299.918 29.692 299.622 29.436 299.374 29.1C299.126 28.756 298.934 28.332 298.798 27.828C298.67 27.324 298.606 26.748 298.606 26.1C298.606 25.444 298.67 24.864 298.798 24.36C298.934 23.856 299.126 23.432 299.374 23.088C299.622 22.744 299.918 22.488 300.262 22.32C300.614 22.144 301.006 22.056 301.438 22.056C301.87 22.056 302.258 22.144 302.602 22.32C302.954 22.488 303.254 22.744 303.502 23.088C303.75 23.432 303.938 23.856 304.066 24.36C304.202 24.864 304.27 25.444 304.27 26.1C304.27 26.748 304.202 27.324 304.066 27.828C303.938 28.332 303.75 28.756 303.502 29.1C303.254 29.436 302.954 29.692 302.602 29.868C302.258 30.044 301.87 30.132 301.438 30.132ZM301.438 29.436C301.742 29.436 301.998 29.368 302.206 29.232C302.414 29.096 302.586 28.888 302.722 28.608C302.858 28.328 302.958 27.98 303.022 27.564C303.086 27.148 303.118 26.66 303.118 26.1C303.118 25.532 303.086 25.04 303.022 24.624C302.958 24.208 302.858 23.86 302.722 23.58C302.586 23.3 302.414 23.092 302.206 22.956C301.998 22.82 301.742 22.752 301.438 22.752C301.134 22.752 300.878 22.82 300.67 22.956C300.462 23.092 300.29 23.3 300.154 23.58C300.018 23.86 299.918 24.208 299.854 24.624C299.79 25.04 299.758 25.532 299.758 26.1C299.758 26.66 299.79 27.152 299.854 27.576C299.918 27.992 300.018 28.34 300.154 28.62C300.29 28.892 300.462 29.096 300.67 29.232C300.878 29.368 301.134 29.436 301.438 29.436ZM307.181 25.572C306.813 25.572 306.489 25.484 306.209 25.308C305.937 25.132 305.721 24.88 305.561 24.552C305.409 24.224 305.333 23.824 305.333 23.352C305.333 22.872 305.409 22.468 305.561 22.14C305.721 21.804 305.937 21.552 306.209 21.384C306.489 21.208 306.813 21.12 307.181 21.12C307.549 21.12 307.873 21.208 308.153 21.384C308.433 21.552 308.649 21.804 308.801 22.14C308.961 22.468 309.041 22.872 309.041 23.352C309.041 23.824 308.961 24.224 308.801 24.552C308.649 24.88 308.433 25.132 308.153 25.308C307.873 25.484 307.549 25.572 307.181 25.572ZM307.181 24.984C307.389 24.984 307.557 24.928 307.685 24.816C307.813 24.696 307.905 24.516 307.961 24.276C308.025 24.036 308.057 23.728 308.057 23.352C308.057 22.968 308.025 22.656 307.961 22.416C307.905 22.176 307.813 22 307.685 21.888C307.557 21.768 307.389 21.708 307.181 21.708C306.981 21.708 306.817 21.768 306.689 21.888C306.561 22 306.465 22.176 306.401 22.416C306.345 22.656 306.317 22.968 306.317 23.352C306.317 23.728 306.345 24.036 306.401 24.276C306.465 24.516 306.561 24.696 306.689 24.816C306.817 24.928 306.981 24.984 307.181 24.984ZM311.741 30.168C311.373 30.168 311.049 30.084 310.769 29.916C310.489 29.74 310.273 29.488 310.121 29.16C309.969 28.824 309.893 28.42 309.893 27.948C309.893 27.468 309.969 27.064 310.121 26.736C310.273 26.408 310.489 26.156 310.769 25.98C311.049 25.804 311.373 25.716 311.741 25.716C312.109 25.716 312.433 25.804 312.713 25.98C312.993 26.156 313.209 26.408 313.361 26.736C313.521 27.064 313.601 27.468 313.601 27.948C313.601 28.42 313.521 28.824 313.361 29.16C313.209 29.488 312.993 29.74 312.713 29.916C312.433 30.084 312.109 30.168 311.741 30.168ZM305.501 30L312.497 21.48H313.361L306.353 30H305.501ZM311.741 29.58C311.949 29.58 312.117 29.524 312.245 29.412C312.373 29.3 312.465 29.124 312.521 28.884C312.577 28.636 312.605 28.324 312.605 27.948C312.605 27.572 312.577 27.264 312.521 27.024C312.465 26.776 312.373 26.596 312.245 26.484C312.117 26.364 311.949 26.304 311.741 26.304C311.533 26.304 311.365 26.364 311.237 26.484C311.109 26.596 311.017 26.776 310.961 27.024C310.905 27.264 310.877 27.572 310.877 27.948C310.877 28.324 310.905 28.636 310.961 28.884C311.017 29.124 311.109 29.3 311.237 29.412C311.365 29.524 311.533 29.58 311.741 29.58Z" fill="black"/>
</g>
<rect x="231.5" y="1.5" width="89" height="49" rx="5.5" stroke="#A5A5A5"/>
<defs>
<clipPath id="clip0_45_58">
<rect x="231" y="88" width="90" height="50" rx="6" fill="white"/>
</clipPath>
<clipPath id="clip1_45_58">
<rect x="231" y="157" width="90" height="50" rx="6" fill="white"/>
</clipPath>
<clipPath id="clip2_45_58">
<rect x="231" y="1" width="90" height="50" rx="6" fill="white"/>
</clipPath>
</defs>
</svg>
